<svg width="32" height="32" fill="none" xmlns="http://www.w3.org/2000/svg"><g clip-path="url(#clip0_6227_482)"><path d="M28.426.005H3.572A3.564 3.564 0 00.008 3.57v24.858a3.564 3.564 0 003.564 3.564h24.854a3.564 3.564 0 003.564-3.564V3.57A3.564 3.564 0 0028.426.005z" fill="url(#paint0_linear_6227_482)"/><path d="M24.319 8.319L32 15.999l-.008-12.432A3.564 3.564 0 0028.428.005H3.572a3.555 3.555 0 00-3.563 3.56L0 22.216 24.319 8.32z" fill="#F2A800"/><path d="M27.46 20.534L16 31.997H3.35a3.343 3.343 0 01-3.345-3.343L0 15.996 11.461 4.533a6.417 6.417 0 019.075 0l6.924 6.925a6.42 6.42 0 010 9.076z" fill="url(#paint1_linear_6227_482)"/><path d="M13.214 19.269l2.78 6.073 2.787-6.073c.256-.561.39-1.167.39-1.784h-6.344c0 .617.133 1.226.387 1.784z" fill="url(#paint2_linear_6227_482)"/><path d="M18.459 7.446H13.54a.711.711 0 00-.711.712v9.546c0 .395.319.712.711.712h4.918c.394 0 .711-.32.711-.712V8.158a.711.711 0 00-.712-.712zm.226 8.8h-5.372V8.494h5.372v7.75z" fill="#EF7714"/><path d="M17.805 11.848h-.106v-.843c0-.915-.745-1.66-1.66-1.66-.916 0-1.66.745-1.66 1.66v.843h-.186a.357.357 0 00-.357.357v2.305c0 .196.158.357.357.357h3.61a.357.357 0 00.356-.357v-2.305a.357.357 0 00-.357-.357h.003zm-1.396 2.166h-.815l.261-.69a.411.411 0 01.146-.797.411.411 0 01.146.798l.262.689zm.79-2.166h-2.315v-.843a1.157 1.157 0 012.314 0v.843z" fill="url(#paint3_linear_6227_482)"/><path d="M22.01 24.142H20.5v-.755h1.51v.755zm-2.012 0h-1.51v-.755h1.51v.755zm-2.012 0h-1.51v-.755h1.51v.755zm-2.013 0h-1.509v-.755h1.51v.755zm-2.012 0h-1.509v-.755h1.51v.755zm-2.012 0H10.44v-.755h1.51v.755zm-2.012 0H8.428v-.755h1.51v.755zm-2.012 0H6.73c-.128 0-.254-.01-.377-.033l.133-.742c.08.015.164.022.247.022h1.195v.755l-.003-.002zm-2.15-.224a2.143 2.143 0 01-1.125-1.374l.73-.196c.103.387.37.712.732.893l-.335.677h-.002zm-.446-1.96l-.754-.015a2.164 2.164 0 01.762-1.603l.488.577c-.307.259-.488.638-.496 1.041zm.83-1.25l-.306-.69c.276-.123.57-.186.875-.186h.764v.755h-.764c-.199 0-.39.04-.569.12zm2.853-.121H7.996v-.755h1.016c.13 0 .259-.017.382-.052l.206.727a2.12 2.12 0 01-.588.083v-.003zm1.144-.33l-.402-.638c.342-.214.573-.566.638-.961l.745.12a2.152 2.152 0 01-.981 1.48zm.252-2.01a1.405 1.405 0 00-.559-1.008l.45-.604c.498.372.81.938.86 1.552l-.752.06zm-.906-1.197a1.411 1.411 0 00-.49-.088h-.873v-.755h.873c.261 0 .513.046.754.136l-.264.707zm-1.866-.088h-.75v-.755h.75v.755z" fill="#7F7F80"/><path d="M22.555 15.815a2.81 2.81 0 00-2.809 2.81c0 1.552 2.81 5.496 2.81 5.496s2.809-3.944 2.809-5.496a2.81 2.81 0 00-2.81-2.81zm0 4.279a1.439 1.439 0 110-2.877 1.439 1.439 0 010 2.877z" fill="url(#paint4_linear_6227_482)"/><path d="M22.556 15.815a2.81 2.81 0 012.809 2.81c0 1.552-2.81 5.496-2.81 5.496s-2.809-3.944-2.809-5.496a2.81 2.81 0 012.81-2.81zm0 4.279a1.438 1.438 0 100-2.877 1.438 1.438 0 000 2.877zm0-4.782a3.317 3.317 0 00-3.313 3.313c0 1.665 2.606 5.37 2.903 5.788l.41.576.41-.576c.296-.417 2.902-4.123 2.902-5.788a3.317 3.317 0 00-3.312-3.313zm0 4.279a.937.937 0 01-.936-.936c0-.515.42-.936.936-.936a.937.937 0 010 1.872z" fill="#fff"/><path d="M7.296 12.475a1.66 1.66 0 00-1.66 1.66c0 .918 1.66 3.245 1.66 3.245s1.66-2.33 1.66-3.245a1.66 1.66 0 00-1.66-1.66zm0 2.525a.85.85 0 11.002-1.701A.85.85 0 017.296 15z" fill="url(#paint5_linear_6227_482)"/><path d="M7.296 12.475c.916 0 1.66.742 1.66 1.66 0 .918-1.66 3.245-1.66 3.245s-1.66-2.33-1.66-3.245c0-.916.742-1.66 1.66-1.66zm0 2.525a.85.85 0 100-1.701.85.85 0 000 1.701zm0-3.029a2.166 2.166 0 00-2.163 2.164c0 1.026 1.46 3.127 1.753 3.537l.41.576.41-.576c.292-.41 1.753-2.51 1.753-3.537 0-1.193-.97-2.164-2.163-2.164zm0 2.526a.348.348 0 010-.694.348.348 0 010 .694z" fill="#fff"/><path d="M6.864 21.043a.926.926 0 100-1.852.926.926 0 000 1.852z" fill="url(#paint6_linear_6227_482)"/><path d="M6.864 19.191a.926.926 0 11-.002 1.853.926.926 0 01.002-1.853zm0-.252a1.179 1.179 0 000 2.355c.649 0 1.177-.528 1.177-1.177 0-.65-.528-1.178-1.177-1.178z" fill="#fff"/><path d="M11.28 24.69a.926.926 0 100-1.851.926.926 0 000 1.85z" fill="url(#paint7_linear_6227_482)"/><path d="M11.28 22.838a.926.926 0 11-.001 1.853.926.926 0 01.001-1.852zm0-.251c-.649 0-1.177.528-1.177 1.177 0 .65.528 1.177 1.177 1.177.65 0 1.177-.528 1.177-1.177s-.528-1.177-1.177-1.177z" fill="#fff"/><path d="M0 15.996L15.994 0H3.564A3.566 3.566 0 000 3.564v12.432z" fill="#EE7114"/><path d="M15.999 17.538a.404.404 0 01-.403-.402.404.404 0 01.805 0 .404.404 0 01-.402.402z" fill="#fff"/></g><defs><linearGradient id="paint0_linear_6227_482" x1="8.061" y1="23.938" x2="24.093" y2="7.906" gradientUnits="userSpaceOnUse"><stop stop-color="#F2A800"/><stop offset=".2" stop-color="#F09207"/><stop offset=".46" stop-color="#EF800E"/><stop offset=".72" stop-color="#EE7412"/><stop offset="1" stop-color="#EE7114"/></linearGradient><linearGradient id="paint1_linear_6227_482" x1="2.301" y1="29.64" x2="23.102" y2="8.944" gradientUnits="userSpaceOnUse"><stop stop-color="#D0D0CF"/><stop offset=".42" stop-color="#fff"/></linearGradient><linearGradient id="paint2_linear_6227_482" x1="15.999" y1="23.867" x2="15.999" y2="19.226" gradientUnits="userSpaceOnUse"><stop stop-color="#fff"/><stop offset="1" stop-color="silver"/></linearGradient><linearGradient id="paint3_linear_6227_482" x1="13.838" y1="12.105" x2="18.159" y2="12.105" gradientUnits="userSpaceOnUse"><stop stop-color="#F2A800"/><stop offset=".2" stop-color="#F09207"/><stop offset=".46" stop-color="#EF800E"/><stop offset=".72" stop-color="#EE7412"/><stop offset="1" stop-color="#EE7114"/></linearGradient><linearGradient id="paint4_linear_6227_482" x1="19.744" y1="19.968" x2="25.365" y2="19.968" gradientUnits="userSpaceOnUse"><stop stop-color="#F2A800"/><stop offset=".2" stop-color="#F09207"/><stop offset=".46" stop-color="#EF800E"/><stop offset=".72" stop-color="#EE7412"/><stop offset="1" stop-color="#EE7114"/></linearGradient><linearGradient id="paint5_linear_6227_482" x1="5.636" y1="14.925" x2="8.954" y2="14.925" gradientUnits="userSpaceOnUse"><stop stop-color="#F2A800"/><stop offset=".2" stop-color="#F09207"/><stop offset=".46" stop-color="#EF800E"/><stop offset=".72" stop-color="#EE7412"/><stop offset="1" stop-color="#EE7114"/></linearGradient><linearGradient id="paint6_linear_6227_482" x1="5.938" y1="20.117" x2="7.789" y2="20.117" gradientUnits="userSpaceOnUse"><stop stop-color="#F2A800"/><stop offset=".2" stop-color="#F09207"/><stop offset=".46" stop-color="#EF800E"/><stop offset=".72" stop-color="#EE7412"/><stop offset="1" stop-color="#EE7114"/></linearGradient><linearGradient id="paint7_linear_6227_482" x1="10.357" y1="23.764" x2="12.206" y2="23.764" gradientUnits="userSpaceOnUse"><stop stop-color="#F2A800"/><stop offset=".2" stop-color="#F09207"/><stop offset=".46" stop-color="#EF800E"/><stop offset=".72" stop-color="#EE7412"/><stop offset="1" stop-color="#EE7114"/></linearGradient><clipPath id="clip0_6227_482"><path fill="#fff" d="M0 0h32v32H0z"/></clipPath></defs></svg>