<svg width="32" height="32" viewBox="0 0 32 32" fill="none" xmlns="http://www.w3.org/2000/svg">
<g clip-path="url(#clip0_6227_482)">
<path d="M28.426 0.00500488H3.57151C1.6032 0.00500488 0.00756836 1.60089 0.00756836 3.5695V28.4279C0.00756836 30.3965 1.6032 31.9924 3.57151 31.9924H28.426C30.3943 31.9924 31.99 30.3965 31.99 28.4279V3.5695C31.99 1.60089 30.3943 0.00500488 28.426 0.00500488Z" fill="url(#paint0_linear_6227_482)"/>
<path d="M24.3188 8.31883L32 15.9987L31.9925 3.567C31.9925 1.59986 30.3953 0.00501675 28.4285 0.00501675H3.57148C1.60214 -1.42977e-05 0.00754539 1.59483 0.00754539 3.56449L0 22.2171L24.3188 8.31883Z" fill="#F2A800"/>
<path d="M27.4602 20.5343L15.9987 31.9975H3.35015C1.50405 32 0.00754539 30.5033 0.00503026 28.6544L0 15.9963L11.4614 4.53303C13.9665 2.02756 18.031 2.02756 20.536 4.53303L27.4602 11.4583C29.9653 13.9637 29.9653 18.0288 27.4602 20.5343Z" fill="url(#paint1_linear_6227_482)"/>
<path d="M13.2145 19.269L15.9937 25.3415L18.7805 19.269C19.037 18.708 19.1703 18.1018 19.1703 17.4855H12.8271C12.8271 18.1018 12.9605 18.7105 13.2145 19.269Z" fill="url(#paint2_linear_6227_482)"/>
<path d="M18.4585 7.44592H13.5414C13.1465 7.44592 12.8296 7.76539 12.8296 8.15782V17.7042C12.8296 18.0992 13.149 18.4161 13.5414 18.4161H18.4585C18.8533 18.4161 19.1702 18.0967 19.1702 17.7042V8.15782C19.1702 7.76288 18.8508 7.44592 18.4585 7.44592ZM18.6848 16.2452H13.3125V8.4949H18.6848V16.2452Z" fill="#EF7714"/>
<path d="M17.8046 11.8482H17.6989V11.0055C17.6989 10.0898 16.9545 9.34521 16.0389 9.34521C15.1234 9.34521 14.379 10.0898 14.379 11.0055V11.8482H14.1928C13.9967 11.8482 13.8357 12.0066 13.8357 12.2054V14.5096C13.8357 14.7058 13.9941 14.8668 14.1928 14.8668H17.8021C17.9982 14.8668 18.1592 14.7083 18.1592 14.5096V12.2054C18.1592 12.0092 18.0007 11.8482 17.8021 11.8482H17.8046ZM16.4087 14.014H15.5938L15.8553 13.3248C15.6994 13.2669 15.5887 13.116 15.5887 12.9399C15.5887 12.711 15.7723 12.5274 16.0012 12.5274C16.2301 12.5274 16.4137 12.711 16.4137 12.9399C16.4137 13.116 16.303 13.2644 16.1471 13.3248L16.4087 14.014ZM17.1984 11.8482H14.8845V11.0055C14.8845 10.3665 15.4026 9.84832 16.0415 9.84832C16.6803 9.84832 17.1984 10.3665 17.1984 11.0055V11.8482Z" fill="url(#paint3_linear_6227_482)"/>
<path d="M22.0098 24.1415H20.5008V23.3868H22.0098V24.1415ZM19.9977 24.1415H18.4887V23.3868H19.9977V24.1415ZM17.9856 24.1415H16.4765V23.3868H17.9856V24.1415ZM15.9735 24.1415H14.4644V23.3868H15.9735V24.1415ZM13.9614 24.1415H12.4523V23.3868H13.9614V24.1415ZM11.9493 24.1415H10.4402V23.3868H11.9493V24.1415ZM9.93721 24.1415H8.42813V23.3868H9.93721V24.1415ZM7.9251 24.1415H6.73042C6.60215 24.1415 6.47639 24.1314 6.35315 24.1088L6.48645 23.3667C6.56693 23.3818 6.64993 23.3893 6.73293 23.3893H7.92762V24.144L7.9251 24.1415ZM5.77467 23.9176C5.21882 23.6434 4.80886 23.1428 4.6504 22.5441L5.37979 22.3479C5.48291 22.7353 5.74952 23.0598 6.1117 23.2409L5.77718 23.9176H5.77467ZM5.32949 21.958L4.57495 21.9429C4.58753 21.3241 4.86671 20.7405 5.33704 20.3405L5.82497 20.9166C5.51812 21.1757 5.33704 21.5555 5.32949 21.958ZM6.15948 20.7078L5.85264 20.0185C6.1293 19.8953 6.42357 19.8324 6.7279 19.8324H7.4925V20.587H6.7279C6.52921 20.587 6.33806 20.6273 6.15948 20.7078ZM9.01164 20.587H7.99553V19.8324H9.01164C9.14243 19.8324 9.2707 19.8148 9.39394 19.7796L9.60018 20.5066C9.40903 20.5619 9.21034 20.5896 9.01164 20.5896V20.587ZM10.156 20.2575L9.7536 19.6186C10.0957 19.4048 10.3271 19.0526 10.3924 18.6576L11.1369 18.7784C11.0388 19.3871 10.6817 19.928 10.156 20.2575ZM10.4075 18.2476C10.3748 17.8476 10.1711 17.4804 9.84918 17.2389L10.2994 16.6352C10.7974 17.0075 11.1093 17.5735 11.1596 18.1872L10.4075 18.2476ZM9.50209 17.0502C9.34615 16.9924 9.18015 16.9622 9.01164 16.9622H8.13889V16.2075H9.01164C9.27321 16.2075 9.52473 16.2528 9.76618 16.3434L9.50209 17.0502ZM7.63586 16.9622H6.88636V16.2075H7.63586V16.9622Z" fill="#7F7F80"/>
<path d="M22.5555 15.8151C21.0037 15.8151 19.7461 17.0728 19.7461 18.6249C19.7461 20.177 22.5555 24.1213 22.5555 24.1213C22.5555 24.1213 25.3649 20.177 25.3649 18.6249C25.3649 17.0728 24.1073 15.8151 22.5555 15.8151ZM22.5555 20.094C21.7607 20.094 21.1168 19.45 21.1168 18.6551C21.1168 17.8602 21.7607 17.2162 22.5555 17.2162C23.3503 17.2162 23.9941 17.8602 23.9941 18.6551C23.9941 19.45 23.3503 20.094 22.5555 20.094Z" fill="url(#paint4_linear_6227_482)"/>
<path d="M22.5556 15.8151C24.1074 15.8151 25.365 17.0729 25.365 18.625C25.365 20.177 22.5556 24.1214 22.5556 24.1214C22.5556 24.1214 19.7462 20.177 19.7462 18.625C19.7462 17.0729 21.0038 15.8151 22.5556 15.8151ZM22.5556 20.094C23.3504 20.094 23.9942 19.4501 23.9942 18.6551C23.9942 17.8602 23.3504 17.2163 22.5556 17.2163C21.7608 17.2163 21.1169 17.8602 21.1169 18.6551C21.1169 19.4501 21.7608 20.094 22.5556 20.094ZM22.5556 15.312C20.7296 15.312 19.2432 16.7987 19.2432 18.625C19.2432 20.2902 21.8488 23.9956 22.1456 24.4132L22.5556 24.9892L22.9656 24.4132C23.2623 23.9956 25.868 20.2902 25.868 18.625C25.868 16.7987 24.3816 15.312 22.5556 15.312ZM22.5556 19.5909C22.04 19.5909 21.62 19.1708 21.62 18.6551C21.62 18.1395 22.04 17.7194 22.5556 17.7194C23.0712 17.7194 23.4912 18.1395 23.4912 18.6551C23.4912 19.1708 23.0712 19.5909 22.5556 19.5909Z" fill="white"/>
<path d="M7.29622 12.4745C6.38071 12.4745 5.63623 13.2166 5.63623 14.1347C5.63623 15.0529 7.29622 17.3798 7.29622 17.3798C7.29622 17.3798 8.9562 15.0504 8.9562 14.1347C8.9562 13.2191 8.21424 12.4745 7.29622 12.4745ZM7.29622 15.0001C6.8284 15.0001 6.4461 14.6202 6.4461 14.1498C6.4461 13.6794 6.82589 13.2996 7.29622 13.2996C7.76655 13.2996 8.14633 13.6794 8.14633 14.1498C8.14633 14.6202 7.76655 15.0001 7.29622 15.0001Z" fill="url(#paint5_linear_6227_482)"/>
<path d="M7.29631 12.4745C8.21182 12.4745 8.9563 13.2166 8.9563 14.1348C8.9563 15.053 7.29631 17.3798 7.29631 17.3798C7.29631 17.3798 5.63633 15.0504 5.63633 14.1348C5.63633 13.2191 6.37829 12.4745 7.29631 12.4745ZM7.29631 15.0001C7.76413 15.0001 8.14643 14.6203 8.14643 14.1499C8.14643 13.6795 7.76664 13.2996 7.29631 13.2996C6.82598 13.2996 6.4462 13.6795 6.4462 14.1499C6.4462 14.6203 6.82598 15.0001 7.29631 15.0001ZM7.29631 11.9714C6.10414 11.9714 5.1333 12.9424 5.1333 14.1348C5.1333 15.1611 6.59208 17.2616 6.88635 17.6716L7.29631 18.2477L7.70628 17.6716C7.99803 17.2616 9.45932 15.1611 9.45932 14.1348C9.45932 12.9424 8.48848 11.9714 7.29631 11.9714ZM7.29631 14.497C7.10516 14.497 6.94922 14.3411 6.94922 14.1499C6.94922 13.9587 7.10516 13.8027 7.29631 13.8027C7.48746 13.8027 7.6434 13.9587 7.6434 14.1499C7.6434 14.3411 7.48746 14.497 7.29631 14.497Z" fill="white"/>
<path d="M6.8638 21.0425C7.37498 21.0425 7.78937 20.628 7.78937 20.1168C7.78937 19.6055 7.37498 19.191 6.8638 19.191C6.35262 19.191 5.93823 19.6055 5.93823 20.1168C5.93823 20.628 6.35262 21.0425 6.8638 21.0425Z" fill="url(#paint6_linear_6227_482)"/>
<path d="M6.86385 19.191C7.37442 19.191 7.78942 19.6061 7.78942 20.1167C7.78942 20.6274 7.37442 21.0424 6.86385 21.0424C6.35328 21.0424 5.93828 20.6274 5.93828 20.1167C5.93828 19.6061 6.35328 19.191 6.86385 19.191ZM6.86385 18.9395C6.21494 18.9395 5.68677 19.4677 5.68677 20.1167C5.68677 20.7657 6.21494 21.294 6.86385 21.294C7.51275 21.294 8.04093 20.7657 8.04093 20.1167C8.04093 19.4677 7.51275 18.9395 6.86385 18.9395Z" fill="white"/>
<path d="M11.2803 24.6899C11.7915 24.6899 12.2059 24.2755 12.2059 23.7642C12.2059 23.253 11.7915 22.8385 11.2803 22.8385C10.7691 22.8385 10.3547 23.253 10.3547 23.7642C10.3547 24.2755 10.7691 24.6899 11.2803 24.6899Z" fill="url(#paint7_linear_6227_482)"/>
<path d="M11.2804 22.8385C11.7909 22.8385 12.2059 23.2535 12.2059 23.7642C12.2059 24.2748 11.7909 24.6899 11.2804 24.6899C10.7698 24.6899 10.3548 24.2748 10.3548 23.7642C10.3548 23.2535 10.7698 22.8385 11.2804 22.8385ZM11.2804 22.5869C10.6314 22.5869 10.1033 23.1152 10.1033 23.7642C10.1033 24.4132 10.6314 24.9414 11.2804 24.9414C11.9293 24.9414 12.4574 24.4132 12.4574 23.7642C12.4574 23.1152 11.9293 22.5869 11.2804 22.5869Z" fill="white"/>
<path d="M0 15.9962L15.9937 0H3.56394C1.59711 0 0 1.59736 0 3.5645V15.9962Z" fill="#EE7114"/>
<path d="M15.9989 17.5382C15.7775 17.5382 15.5964 17.3571 15.5964 17.1358C15.5964 16.9144 15.7775 16.7333 15.9989 16.7333C16.2202 16.7333 16.4013 16.9144 16.4013 17.1358C16.4013 17.3571 16.2202 17.5382 15.9989 17.5382Z" fill="white"/>
</g>
<defs>
<linearGradient id="paint0_linear_6227_482" x1="8.06101" y1="23.9377" x2="24.0925" y2="7.90628" gradientUnits="userSpaceOnUse">
<stop stop-color="#F2A800"/>
<stop offset="0.2" stop-color="#F09207"/>
<stop offset="0.46" stop-color="#EF800E"/>
<stop offset="0.72" stop-color="#EE7412"/>
<stop offset="1" stop-color="#EE7114"/>
</linearGradient>
<linearGradient id="paint1_linear_6227_482" x1="2.30134" y1="29.6405" x2="23.1022" y2="8.9435" gradientUnits="userSpaceOnUse">
<stop stop-color="#D0D0CF"/>
<stop offset="0.42" stop-color="white"/>
</linearGradient>
<linearGradient id="paint2_linear_6227_482" x1="15.9987" y1="23.8674" x2="15.9987" y2="19.2262" gradientUnits="userSpaceOnUse">
<stop stop-color="white"/>
<stop offset="1" stop-color="#C0C0C0"/>
</linearGradient>
<linearGradient id="paint3_linear_6227_482" x1="13.8382" y1="12.1047" x2="18.1592" y2="12.1047" gradientUnits="userSpaceOnUse">
<stop stop-color="#F2A800"/>
<stop offset="0.2" stop-color="#F09207"/>
<stop offset="0.46" stop-color="#EF800E"/>
<stop offset="0.72" stop-color="#EE7412"/>
<stop offset="1" stop-color="#EE7114"/>
</linearGradient>
<linearGradient id="paint4_linear_6227_482" x1="19.7436" y1="19.9682" x2="25.3649" y2="19.9682" gradientUnits="userSpaceOnUse">
<stop stop-color="#F2A800"/>
<stop offset="0.2" stop-color="#F09207"/>
<stop offset="0.46" stop-color="#EF800E"/>
<stop offset="0.72" stop-color="#EE7412"/>
<stop offset="1" stop-color="#EE7114"/>
</linearGradient>
<linearGradient id="paint5_linear_6227_482" x1="5.63623" y1="14.9246" x2="8.95369" y2="14.9246" gradientUnits="userSpaceOnUse">
<stop stop-color="#F2A800"/>
<stop offset="0.2" stop-color="#F09207"/>
<stop offset="0.46" stop-color="#EF800E"/>
<stop offset="0.72" stop-color="#EE7412"/>
<stop offset="1" stop-color="#EE7114"/>
</linearGradient>
<linearGradient id="paint6_linear_6227_482" x1="5.93823" y1="20.1168" x2="7.78937" y2="20.1168" gradientUnits="userSpaceOnUse">
<stop stop-color="#F2A800"/>
<stop offset="0.2" stop-color="#F09207"/>
<stop offset="0.46" stop-color="#EF800E"/>
<stop offset="0.72" stop-color="#EE7412"/>
<stop offset="1" stop-color="#EE7114"/>
</linearGradient>
<linearGradient id="paint7_linear_6227_482" x1="10.3573" y1="23.7642" x2="12.2059" y2="23.7642" gradientUnits="userSpaceOnUse">
<stop stop-color="#F2A800"/>
<stop offset="0.2" stop-color="#F09207"/>
<stop offset="0.46" stop-color="#EF800E"/>
<stop offset="0.72" stop-color="#EE7412"/>
<stop offset="1" stop-color="#EE7114"/>
</linearGradient>
<clipPath id="clip0_6227_482">
<rect width="32" height="32" fill="white"/>
</clipPath>
</defs>
</svg>
